<svg aria-hidden="true" style="position: absolute; width: 0; height: 0; overflow: hidden;" version="1.1" xmlns="http://www.w3.org/2000/svg" xmlns:xlink="http://www.w3.org/1999/xlink">
<defs>
<symbol id="icon-arrow" viewBox="0 0 32 32">
<path stroke-linejoin="round" stroke-linecap="round" stroke-miterlimit="4" stroke-width="5.3333" d="M2.667 9.333l13.333 13.333 13.333-13.333"></path>
</symbol>
<symbol id="icon-facebook" viewBox="0 0 32 32">
<path stroke-linejoin="round" stroke-linecap="round" stroke-miterlimit="4" stroke-width="2.4" d="M22.667 2.667h-4c-1.768 0-3.464 0.702-4.714 1.953s-1.953 2.946-1.953 4.714v4h-4v5.333h4v10.667h5.333v-10.667h4l1.333-5.333h-5.333v-4c0-0.354 0.14-0.693 0.391-0.943s0.589-0.39 0.943-0.39h4v-5.333z"></path>
</symbol>
<symbol id="icon-iconamoon_search" viewBox="0 0 32 32">
<path stroke-linejoin="round" stroke-linecap="round" stroke-miterlimit="4" stroke-width="2.6667" d="M28 28l-5.791-5.791M22.209 22.21c0.99-0.991 1.776-2.166 2.312-3.461s0.812-2.681 0.812-4.082-0.276-2.788-0.812-4.082c-0.536-1.294-1.322-2.47-2.312-3.461s-2.167-1.776-3.461-2.312-2.681-0.812-4.082-0.812c-1.401 0-2.788 0.276-4.082 0.812s-2.47 1.322-3.461 2.312c-2 2-3.124 4.714-3.124 7.543s1.124 5.542 3.124 7.543c2 2 4.714 3.124 7.543 3.124s5.542-1.124 7.543-3.124z"></path>
</symbol>
<symbol id="icon-inst" viewBox="0 0 32 32">
<path d="M16 10c-1.187 0-2.347 0.352-3.333 1.011s-1.756 1.596-2.21 2.693c-0.454 1.096-0.573 2.303-0.341 3.467s0.803 2.233 1.642 3.072c0.839 0.839 1.908 1.411 3.072 1.642s2.37 0.113 3.467-0.341c1.096-0.454 2.033-1.223 2.693-2.21s1.011-2.147 1.011-3.333c-0.002-1.591-0.634-3.116-1.759-4.241s-2.65-1.758-4.241-1.759zM16 20c-0.791 0-1.564-0.235-2.222-0.674s-1.17-1.064-1.473-1.795c-0.303-0.731-0.382-1.535-0.228-2.311s0.535-1.489 1.095-2.048c0.559-0.559 1.272-0.94 2.048-1.095s1.58-0.075 2.311 0.228c0.731 0.303 1.356 0.815 1.795 1.473s0.674 1.431 0.674 2.222c0 1.061-0.421 2.078-1.172 2.828s-1.768 1.172-2.828 1.172zM22 3h-12c-1.856 0.002-3.635 0.74-4.948 2.052s-2.050 3.092-2.052 4.948v12c0.002 1.856 0.74 3.635 2.052 4.948s3.092 2.051 4.948 2.052h12c1.856-0.002 3.635-0.74 4.948-2.052s2.051-3.092 2.052-4.948v-12c-0.002-1.856-0.74-3.635-2.052-4.948s-3.092-2.050-4.948-2.052zM27 22c0 1.326-0.527 2.598-1.464 3.536s-2.209 1.464-3.536 1.464h-12c-1.326 0-2.598-0.527-3.536-1.464s-1.464-2.209-1.464-3.536v-12c0-1.326 0.527-2.598 1.464-3.536s2.209-1.464 3.536-1.464h12c1.326 0 2.598 0.527 3.536 1.464s1.464 2.209 1.464 3.536v12zM24 9.5c0 0.297-0.088 0.587-0.253 0.833s-0.399 0.439-0.673 0.552c-0.274 0.114-0.576 0.143-0.867 0.085s-0.558-0.201-0.768-0.411c-0.21-0.21-0.353-0.477-0.411-0.768s-0.028-0.593 0.085-0.867c0.113-0.274 0.306-0.508 0.552-0.673s0.537-0.253 0.833-0.253c0.398 0 0.779 0.158 1.061 0.439s0.439 0.663 0.439 1.061z"></path>
</symbol>
<symbol id="icon-menu" viewBox="0 0 32 32">
<path d="M3.2 5.12c-0.005-0-0.012-0-0.018-0-0.707 0-1.28 0.573-1.28 1.28s0.573 1.28 1.28 1.28c0.006 0 0.013-0 0.019-0h25.599c0.005 0 0.012 0 0.018 0 0.707 0 1.28-0.573 1.28-1.28s-0.573-1.28-1.28-1.28c-0.006 0-0.013 0-0.019 0h-25.599zM3.2 14.72c-0.005-0-0.012-0-0.018-0-0.707 0-1.28 0.573-1.28 1.28s0.573 1.28 1.28 1.28c0.006 0 0.013-0 0.019-0h25.599c0.005 0 0.012 0 0.018 0 0.707 0 1.28-0.573 1.28-1.28s-0.573-1.28-1.28-1.28c-0.006 0-0.013 0-0.019 0h-25.599zM3.2 24.32c-0.005-0-0.012-0-0.018-0-0.707 0-1.28 0.573-1.28 1.28s0.573 1.28 1.28 1.28c0.006 0 0.013-0 0.019-0h25.599c0.005 0 0.012 0 0.018 0 0.707 0 1.28-0.573 1.28-1.28s-0.573-1.28-1.28-1.28c-0.006 0-0.013 0-0.019 0h-25.599z"></path>
</symbol>
<symbol id="icon-place" viewBox="0 0 32 32">
<path d="M16 16c-1.76 0-3.2-1.44-3.2-3.2s1.44-3.2 3.2-3.2c1.76 0 3.2 1.44 3.2 3.2s-1.44 3.2-3.2 3.2zM25.6 13.12c0-5.808-4.24-9.92-9.6-9.92s-9.6 4.112-9.6 9.92c0 3.744 3.12 8.704 9.6 14.624 6.48-5.92 9.6-10.88 9.6-14.624zM16 0c6.72 0 12.8 5.152 12.8 13.12 0 5.312-4.272 11.6-12.8 18.88-8.528-7.28-12.8-13.568-12.8-18.88 0-7.968 6.080-13.12 12.8-13.12z"></path>
</symbol>
<symbol id="icon-search" viewBox="0 0 32 32">
<path stroke-linejoin="round" stroke-linecap="round" stroke-miterlimit="4" stroke-width="2.6667" d="M25.333 14.667c0 5.891-4.776 10.667-10.667 10.667s-10.667-4.776-10.667-10.667c0-5.891 4.776-10.667 10.667-10.667s10.667 4.776 10.667 10.667z"></path>
<path stroke-linejoin="round" stroke-linecap="round" stroke-miterlimit="4" stroke-width="2.6667" d="M28 28l-5.8-5.8"></path>
</symbol>
<symbol id="icon-twitter" viewBox="0 0 32 32">
<path d="M30.924 8.618c-0.076-0.183-0.204-0.339-0.368-0.449s-0.358-0.169-0.556-0.169h-3.804c-0.532-0.905-1.289-1.657-2.197-2.182s-1.937-0.807-2.987-0.818c-0.782-0.010-1.558 0.136-2.282 0.43s-1.383 0.73-1.936 1.282c-0.57 0.559-1.022 1.226-1.33 1.963s-0.466 1.527-0.464 2.325v0.761c-5.032-1.328-9.149-5.421-9.193-5.465-0.134-0.135-0.304-0.23-0.49-0.271s-0.38-0.030-0.559 0.035c-0.179 0.065-0.336 0.179-0.453 0.33s-0.187 0.332-0.204 0.522c-0.539 5.974 1.196 9.971 2.75 12.273 0.758 1.138 1.679 2.157 2.735 3.025-1.904 2.191-4.901 3.342-4.934 3.355-0.141 0.053-0.268 0.137-0.372 0.246s-0.182 0.24-0.228 0.384-0.060 0.295-0.039 0.445c0.021 0.149 0.075 0.292 0.159 0.417 0.094 0.14 0.469 0.631 1.385 1.090 1.133 0.568 2.629 0.855 4.444 0.855 8.834 0 16.215-6.802 16.969-15.555l3.739-3.738c0.14-0.14 0.235-0.318 0.273-0.512s0.019-0.395-0.057-0.578zM25.299 12.294c-0.171 0.172-0.274 0.4-0.29 0.643-0.509 7.886-7.099 14.064-15.009 14.064-1.32 0-2.25-0.175-2.902-0.385 1.439-0.781 3.445-2.125 4.735-4.060 0.076-0.114 0.127-0.242 0.152-0.376s0.021-0.273-0.010-0.406c-0.031-0.133-0.089-0.258-0.171-0.368s-0.185-0.202-0.303-0.27c-0.059-0.034-5.489-3.292-5.5-12 2 1.625 5.656 4.146 9.834 4.849 0.143 0.024 0.29 0.017 0.43-0.021s0.27-0.107 0.381-0.2 0.2-0.21 0.262-0.342c0.061-0.132 0.093-0.275 0.094-0.42v-2c-0.001-0.533 0.104-1.062 0.311-1.554s0.508-0.938 0.889-1.311c0.365-0.366 0.8-0.655 1.279-0.85s0.992-0.292 1.509-0.285c1.583 0.020 3.061 0.985 3.68 2.401 0.078 0.178 0.206 0.33 0.369 0.436s0.353 0.163 0.547 0.163h2l-2.285 2.294z"></path>
</symbol>
<symbol id="icon-youtube" viewBox="0 0 32 32">
<path d="M20.555 15.168l-6-4c-0.151-0.101-0.326-0.158-0.507-0.167s-0.361 0.032-0.52 0.117c-0.16 0.085-0.293 0.213-0.386 0.368s-0.142 0.333-0.142 0.514v8c-0 0.181 0.049 0.359 0.142 0.514s0.226 0.283 0.386 0.368c0.16 0.085 0.339 0.126 0.52 0.117s0.356-0.067 0.507-0.167l6-4c0.137-0.091 0.25-0.215 0.327-0.36s0.119-0.307 0.119-0.472c0-0.165-0.041-0.327-0.119-0.472s-0.19-0.269-0.327-0.36zM15 18.131v-4.256l3.197 2.125-3.197 2.131zM29.291 8.69c-0.118-0.461-0.343-0.887-0.658-1.243s-0.71-0.633-1.153-0.807c-4.285-1.655-11.105-1.64-11.48-1.64s-7.195-0.015-11.48 1.64c-0.443 0.174-0.838 0.45-1.153 0.807s-0.541 0.783-0.658 1.243c-0.324 1.248-0.709 3.527-0.709 7.31s0.385 6.063 0.709 7.31c0.118 0.461 0.343 0.887 0.658 1.244s0.71 0.633 1.153 0.807c4.105 1.584 10.53 1.639 11.398 1.639h0.165c0.868 0 7.296-0.055 11.397-1.639 0.443-0.174 0.838-0.45 1.153-0.807s0.54-0.783 0.658-1.244c0.324-1.25 0.709-3.528 0.709-7.31s-0.385-6.063-0.709-7.31zM27.355 22.815c-0.038 0.153-0.112 0.296-0.216 0.415s-0.234 0.212-0.381 0.272c-3.956 1.528-10.685 1.5-10.75 1.5h-0.009c-0.068 0-6.791 0.025-10.75-1.5-0.147-0.059-0.277-0.152-0.381-0.272s-0.178-0.261-0.216-0.415c-0.304-1.141-0.654-3.244-0.654-6.815s0.35-5.674 0.645-6.809c0.037-0.154 0.111-0.297 0.215-0.418s0.234-0.214 0.382-0.274c3.815-1.474 10.207-1.5 10.731-1.5h0.034c0.068 0 6.797-0.022 10.75 1.5 0.146 0.059 0.277 0.152 0.38 0.271s0.178 0.261 0.216 0.415c0.297 1.14 0.648 3.242 0.648 6.814s-0.35 5.674-0.645 6.809v0.006z"></path>
</symbol>
<symbol id="icon-closed" viewBox="0 0 40 32">
<path d="M8.686 1.858l25.456 25.456c0.781 0.781 0.781 2.047 0 2.828s-2.047 0.781-2.828 0l-25.456-25.456c-0.781-0.781-0.781-2.047 0-2.828s2.047-0.781 2.828 0z"></path>
<path d="M5.858 27.314l25.456-25.456c0.781-0.781 2.047-0.781 2.828 0s0.781 2.047 0 2.828l-25.456 25.456c-0.781 0.781-2.047 0.781-2.828 0s-0.781-2.047 0-2.828z"></path>
</symbol>
</defs>
</svg>

